<svg width="120" height="120" viewBox="0 0 120 120" fill="none" xmlns="http://www.w3.org/2000/svg">
<path opacity="0.39" d="M59.7657 119.531C92.7733 119.531 119.531 92.7733 119.531 59.7657C119.531 26.758 92.7733 0 59.7657 0C26.758 0 0 26.758 0 59.7657C0 92.7733 26.758 119.531 59.7657 119.531Z" fill="url(#paint0_radial_29_232)"/>
<path d="M61.1217 24.4114L60.6123 25.9397V71.4048L61.1217 71.9142L82.135 59.4336L61.1217 24.4114Z" fill="#26BAD8"/>
<path d="M61.1211 24.4114L39.9805 59.4336L61.1211 71.9142V49.8821V24.4114Z" fill="#32FDE8"/>
<path d="M61.1213 75.8624L60.7393 76.2444V92.4183L61.1213 93.1824L82.1346 63.3817L61.1213 75.8624Z" fill="#26BAD8"/>
<path d="M61.1211 93.1823V75.8623L39.9805 63.3817L61.1211 93.1823Z" fill="#32FDE8"/>
<path d="M82.1344 59.4336L61.1211 71.9142V49.8821L82.1344 59.4336Z" fill="#32FDE8"/>
<path d="M61.1211 49.8821V71.9142L39.9805 59.4336L61.1211 49.8821Z" fill="#26BAD8"/>
<defs>
<radialGradient id="paint0_radial_29_232" cx="0" cy="0" r="1" gradientUnits="userSpaceOnUse" gradientTransform="translate(59.7792 59.7532) scale(74.2636)">
<stop stop-color="#11639D"/>
<stop offset="0.99" stop-color="white" stop-opacity="0"/>
</radialGradient>
</defs>
</svg>
