<svg width="24" height="24" viewBox="0 0 24 24" fill="none" xmlns="http://www.w3.org/2000/svg">
<g id="Anchor Nodes">
<g id="Icon">
<path d="M12 8.25C12.8284 8.25 13.5 7.57843 13.5 6.75C13.5 5.92157 12.8284 5.25 12 5.25C11.1716 5.25 10.5 5.92157 10.5 6.75C10.5 7.57843 11.1716 8.25 12 8.25Z" fill="#01B576"/>
<path fill-rule="evenodd" clip-rule="evenodd" d="M12.9606 11.5495C13.2362 11.2134 13.6098 10.9761 13.9996 10.7824C15.4815 10.0462 16.5 8.51702 16.5 6.75C16.5 4.26472 14.4853 2.25 12 2.25C9.51472 2.25 7.5 4.26472 7.5 6.75C7.5 8.51702 8.51847 10.0462 10.0004 10.7824C10.3902 10.9761 10.7638 11.2134 11.0394 11.5495L11.055 11.5688L12 12.75L12.945 11.5688L12.9606 11.5495ZM13.3322 9.43911C14.3238 8.94645 15 7.92582 15 6.75C15 5.09315 13.6569 3.75 12 3.75C10.3431 3.75 9 5.09315 9 6.75C9 7.92582 9.67623 8.94645 10.6678 9.43911C11.0711 9.63947 11.5679 9.92899 12 10.375C12.4321 9.92899 12.9289 9.63947 13.3322 9.43911Z" fill="#01B576"/>
<path fill-rule="evenodd" clip-rule="evenodd" d="M4.5 16.5C4.89134 16.5 5.25935 16.4001 5.5799 16.2244L8.26855 18.3753C8.45683 20.2702 10.0556 21.75 12 21.75C13.9444 21.75 15.5432 20.2702 15.7315 18.3753L18.4201 16.2244C18.7407 16.4001 19.1087 16.5 19.5 16.5C20.7426 16.5 21.75 15.4926 21.75 14.25C21.75 13.0074 20.7426 12 19.5 12C18.2574 12 17.25 13.0074 17.25 14.25C17.25 14.5527 17.3098 14.8414 17.4181 15.105L15.4966 16.6422C14.9527 15.2423 13.5922 14.25 12 14.25C10.4078 14.25 9.04735 15.2423 8.50336 16.6422L6.58185 15.105C6.69023 14.8414 6.75 14.5527 6.75 14.25C6.75 13.0074 5.74264 12 4.5 12C3.25736 12 2.25 13.0074 2.25 14.25C2.25 15.4926 3.25736 16.5 4.5 16.5ZM4.5 15C4.91421 15 5.25 14.6642 5.25 14.25C5.25 13.8358 4.91421 13.5 4.5 13.5C4.08579 13.5 3.75 13.8358 3.75 14.25C3.75 14.6642 4.08579 15 4.5 15ZM12 20.25C13.2426 20.25 14.25 19.2426 14.25 18C14.25 16.7574 13.2426 15.75 12 15.75C10.7574 15.75 9.75 16.7574 9.75 18C9.75 19.2426 10.7574 20.25 12 20.25ZM18.75 14.25C18.75 14.6642 19.0858 15 19.5 15C19.9142 15 20.25 14.6642 20.25 14.25C20.25 13.8358 19.9142 13.5 19.5 13.5C19.0858 13.5 18.75 13.8358 18.75 14.25Z" fill="#01B576"/>
</g>
</g>
</svg>
