<svg width="16" height="16" viewBox="0 0 16 16" fill="none" xmlns="http://www.w3.org/2000/svg">
<g id="Briefcase">
<path id="Icon" fill-rule="evenodd" clip-rule="evenodd" d="M4 3.5C4 2.39543 4.89543 1.5 6 1.5H10C11.1046 1.5 12 2.39543 12 3.5V4.04148C13.4189 4.27952 14.5 5.5135 14.5 7V11C14.5 12.6569 13.1569 14 11.5 14H4.5C2.84315 14 1.5 12.6569 1.5 11V7C1.5 5.5135 2.58114 4.27952 4 4.04148V3.5ZM11 3.5V4H5V3.5C5 2.94772 5.44772 2.5 6 2.5H10C10.5523 2.5 11 2.94772 11 3.5ZM11.5 5H4.5C3.39543 5 2.5 5.89543 2.5 7V8.5H6.08535C6.29127 7.9174 6.84689 7.5 7.5 7.5H8.5C9.15311 7.5 9.70873 7.9174 9.91465 8.5H13.5V7C13.5 5.89543 12.6046 5 11.5 5ZM13.5 9.5H9.91465C9.70873 10.0826 9.15311 10.5 8.5 10.5H7.5C6.84689 10.5 6.29127 10.0826 6.08535 9.5H2.5V11C2.5 12.1046 3.39543 13 4.5 13H11.5C12.6046 13 13.5 12.1046 13.5 11V9.5ZM7.5 9.5C7.22386 9.5 7 9.27614 7 9C7 8.72386 7.22386 8.5 7.5 8.5H8.5C8.77614 8.5 9 8.72386 9 9C9 9.27614 8.77614 9.5 8.5 9.5H7.5Z" fill="#01B576"/>
</g>
</svg>
