<svg width="32" height="32" viewBox="0 0 32 32" fill="none" xmlns="http://www.w3.org/2000/svg">
<g id="Bubble Lamp">
<g id="Icon">
<path fill-rule="evenodd" clip-rule="evenodd" d="M12 19.4124V23C12 24.1046 12.8954 25 14 25H18C19.1046 25 20 24.1046 20 23V19.4124C20 18.7055 20.3857 18.0659 20.9368 17.6232C22.8019 16.125 24 13.7973 24 11.1834C24 6.66382 20.4183 3 16 3C11.5817 3 8 6.66382 8 11.1834C8 13.7973 9.19809 16.125 11.0632 17.6232C11.6143 18.0659 12 18.7055 12 19.4124ZM19.6843 16.0639C21.0893 14.9354 22 13.1753 22 11.1834C22 7.72542 19.2712 5 16 5C12.7288 5 10 7.72542 10 11.1834C10 13.1753 10.9107 14.9354 12.3157 16.0639C13.1277 16.7162 13.8478 17.7343 13.9788 19H18.0212C18.1522 17.7343 18.8723 16.7162 19.6843 16.0639ZM18 23V21H14V23H18Z" fill="#01B576"/>
<path d="M15 29C13.8954 29 13 28.1046 13 27H19C19 28.1046 18.1046 29 17 29H15Z" fill="#01B576"/>
</g>
</g>
</svg>
