<svg width="24" height="24" viewBox="0 0 24 24" fill="none" xmlns="http://www.w3.org/2000/svg">
<g id="User/Group-person">
<g id="Icon">
<path fill-rule="evenodd" clip-rule="evenodd" d="M16 8.76003C15.9673 10.3934 14.6337 11.7004 13 11.7C11.3857 11.6734 10.082 10.3742 10.05 8.76003V7.63003C10.0498 6.96442 10.3182 6.3269 10.7945 5.86192C11.2708 5.39694 11.9146 5.14386 12.58 5.16003H13.52C14.1768 5.15737 14.8076 5.41643 15.273 5.87993C15.7384 6.34344 16 6.97321 16 7.63003V8.76003ZM12.55 6.63003C11.9977 6.63003 11.55 7.07775 11.55 7.63003L11.59 8.76003C11.59 9.56084 12.2392 10.21 13.04 10.21C13.8408 10.21 14.49 9.56084 14.49 8.76003V7.63003C14.49 7.07775 14.0423 6.63003 13.49 6.63003H12.55Z" fill="#01B576"/>
<path fill-rule="evenodd" clip-rule="evenodd" d="M23.48 15.3L23.59 16.86C23.7055 17.3483 23.5927 17.8625 23.2833 18.2575C22.974 18.6525 22.5017 18.8853 22 18.89H17.51C17.1183 19.3076 16.5725 19.5461 16 19.55H9.99997C9.39856 19.5581 8.82282 19.3067 8.41997 18.86C8.32693 18.8704 8.23302 18.8704 8.13997 18.86H3.54997C3.06195 18.8416 2.60715 18.608 2.30799 18.2219C2.00882 17.8359 1.89603 17.3372 1.99997 16.86L2.14997 15.3C2.29589 14.5557 2.94158 14.0141 3.69997 14H7.99997C8.17946 13.9901 8.35923 14.0138 8.52997 14.07C8.91363 13.5908 9.49612 13.3143 10.11 13.32H15.89C16.4679 13.3179 17.0185 13.5658 17.4 14C17.4696 13.9902 17.5403 13.9902 17.61 14H21.93C22.6884 14.0141 23.3341 14.5557 23.48 15.3ZM17.55 17.36H22.08C22.1106 17.3011 22.1142 17.2318 22.09 17.17V16.97L21.99 15.55L21.93 15.47H17.4C16.9772 15.4716 16.5737 15.2934 16.29 14.98C16.1908 14.8614 16.0447 14.792 15.89 14.79H10.11C9.94245 14.7922 9.78468 14.8692 9.67998 15C9.39452 15.3389 8.97305 15.5331 8.52998 15.53C8.34855 15.5309 8.16863 15.4969 7.99998 15.43H3.74998C3.68998 15.43 3.68998 15.45 3.68998 15.51L3.58998 16.93V17.13C3.5626 17.1904 3.5626 17.2597 3.58998 17.32H8.17998C8.28642 17.3103 8.39354 17.3103 8.49998 17.32C8.90637 17.3276 9.29094 17.5053 9.55998 17.81C9.67031 17.9392 9.8302 18.0155 9.99998 18.02H16.04C16.2101 18.0167 16.3704 17.9402 16.48 17.81C16.7612 17.5216 17.1471 17.3592 17.55 17.36Z" fill="#01B576"/>
<path fill-rule="evenodd" clip-rule="evenodd" d="M21.97 10.26C21.97 11.4751 20.985 12.46 19.77 12.46C19.1848 12.4627 18.6226 12.2321 18.2079 11.8192C17.7931 11.4063 17.56 10.8452 17.56 10.26V9.42003C17.56 8.92938 17.7549 8.45883 18.1018 8.11188C18.4488 7.76494 18.9193 7.57003 19.41 7.57003H20.12C21.1417 7.57003 21.97 8.3983 21.97 9.42003V10.26ZM19.1625 9.21254C19.0969 9.27818 19.06 9.36721 19.06 9.46003V10.3C19.1026 10.6571 19.4054 10.9259 19.765 10.9259C20.1246 10.9259 20.4274 10.6571 20.47 10.3V9.46003C20.47 9.26673 20.3133 9.11003 20.12 9.11003H19.41C19.3172 9.11003 19.2281 9.14691 19.1625 9.21254Z" fill="#01B576"/>
<path fill-rule="evenodd" clip-rule="evenodd" d="M7.42208 11.8192C7.00733 12.2321 6.44518 12.4627 5.85998 12.46C5.2765 12.46 4.71692 12.2282 4.30434 11.8157C3.89176 11.4031 3.65998 10.8435 3.65998 10.26V9.42003C3.65998 8.3983 4.48825 7.57003 5.50998 7.57003H6.21998C7.2417 7.57003 8.06998 8.3983 8.06998 9.42003V10.26C8.06998 10.8452 7.83682 11.4063 7.42208 11.8192ZM5.50998 9.11003C5.31668 9.11003 5.15998 9.26673 5.15998 9.46003V10.3C5.20258 10.6571 5.50539 10.9259 5.86498 10.9259C6.22456 10.9259 6.52738 10.6571 6.56998 10.3V9.46003C6.56998 9.26673 6.41328 9.11003 6.21998 9.11003H5.50998Z" fill="#01B576"/>
</g>
</g>
</svg>
