<svg width="32" height="32" viewBox="0 0 32 32" fill="none" xmlns="http://www.w3.org/2000/svg">
<g id="Home">
<path id="Icon" fill-rule="evenodd" clip-rule="evenodd" d="M5.20763 9.80272C3.81062 10.9422 3 12.6494 3 14.4522V22.9999C3 26.3137 5.68629 28.9999 9 28.9999H23C26.3137 28.9999 29 26.3137 29 22.9999V14.4522C29 12.6494 28.1894 10.9422 26.7924 9.80272L21.0565 5.12426C18.113 2.72339 13.887 2.72339 10.9435 5.12426L5.20763 9.80272ZM11 21.4999C10.4477 21.4999 10 21.9477 10 22.4999C10 23.0522 10.4477 23.4999 11 23.4999H20.9999C21.5522 23.4999 22 23.0522 22 22.4999C22 21.9477 21.5522 21.4999 20.9999 21.4999H11Z" fill="#95F7B7"/>
</g>
</svg>
