<svg width="32" height="32" viewBox="0 0 32 32" fill="none" xmlns="http://www.w3.org/2000/svg">
<g id="Processor">
<g id="Icon">
<path d="M18 11C18 12.1046 18.8954 13 20 13C21.1046 13 22 12.1046 22 11C22 9.89543 21.1046 9 20 9C18.8954 9 18 9.89543 18 11Z" fill="#01B576"/>
<path d="M12 23C10.8954 23 10 22.1046 10 21C10 19.8954 10.8954 19 12 19C13.1046 19 14 19.8954 14 21C14 22.1046 13.1046 23 12 23Z" fill="#01B576"/>
<path fill-rule="evenodd" clip-rule="evenodd" d="M22 3C22.5523 3 23 3.44772 23 4V5.34141C24.7048 5.94398 26.056 7.29517 26.6586 9H28C28.5523 9 29 9.44772 29 10C29 10.5523 28.5523 11 28 11H27V12.9999H28C28.5523 12.9999 29 13.4476 29 13.9999C29 14.5522 28.5523 14.9999 28 14.9999H27V16.9998H28C28.5523 16.9998 29 17.4475 29 17.9998C29 18.552 28.5523 18.9998 28 18.9998H27V20.9998H28C28.5523 20.9998 29 21.4475 29 21.9998C29 22.552 28.5523 22.9998 28 22.9998H26.6587C26.0561 24.7047 24.7049 26.056 23 26.6586V28C23 28.5523 22.5523 29 22 29C21.4477 29 21 28.5523 21 28V27H19V28C19 28.5523 18.5523 29 18 29C17.4477 29 17 28.5523 17 28V27H15V28C15 28.5523 14.5523 29 14 29C13.4477 29 13 28.5523 13 28V27H11L11 28C11 28.5523 10.5523 29 10 29C9.44772 29 9 28.5523 9 28V26.6586C7.29509 26.056 5.94385 24.7047 5.34133 22.9998H4C3.44772 22.9998 3 22.552 3 21.9998C3 21.4475 3.44772 20.9998 4 20.9998H5V18.9998H4C3.44772 18.9998 3 18.552 3 17.9998C3 17.4475 3.44772 16.9998 4 16.9998H5V14.9999H4C3.44772 14.9999 3 14.5522 3 13.9999C3 13.4476 3.44772 12.9999 4 12.9999H5V11L4 11C3.44772 11 3 10.5523 3 10C3 9.44772 3.44772 9 4 9H5.34141C5.94398 7.29517 7.29517 5.94398 9 5.34141V4C9 3.44772 9.44772 3 10 3C10.5523 3 11 3.44772 11 4V5H13V4C13 3.44772 13.4477 3 14 3C14.5523 3 15 3.44772 15 4V5H17V4C17 3.44772 17.4477 3 18 3C18.5523 3 19 3.44772 19 4V5H21V4C21 3.44772 21.4477 3 22 3ZM21 7H11C8.79086 7 7 8.79086 7 11V21C7 23.2091 8.79086 25 11 25H21C23.2091 25 25 23.2091 25 21V11C25 8.79086 23.2091 7 21 7Z" fill="#01B576"/>
</g>
</g>
</svg>
