<svg width="16" height="16" viewBox="0 0 16 16" fill="none" xmlns="http://www.w3.org/2000/svg">
<g id="Raspberry Pi Zero">
<g id="Icon">
<path d="M3.5 7C3.22386 7 3 7.22386 3 7.5V8.5C3 8.77614 3.22386 9 3.5 9H4.5C4.77614 9 5 8.77614 5 8.5V7.5C5 7.22386 4.77614 7 4.5 7H3.5Z" fill="#01B576"/>
<path d="M6 7.5C6 6.94772 6.44772 6.5 7 6.5H8C8.55228 6.5 9 6.94772 9 7.5V8.5C9 9.05228 8.55228 9.5 8 9.5H7C6.44772 9.5 6 9.05228 6 8.5V7.5Z" fill="#01B576"/>
<path d="M3.5 5C3.22386 5 3 5.22386 3 5.5C3 5.77614 3.22386 6 3.5 6C3.77614 6 4 5.77614 4 5.5C4 5.22386 3.77614 5 3.5 5Z" fill="#01B576"/>
<path d="M3 11C3 10.7239 3.22386 10.5 3.5 10.5C3.77614 10.5 4 10.7239 4 11C4 11.2761 3.77614 11.5 3.5 11.5C3.22386 11.5 3 11.2761 3 11Z" fill="#01B576"/>
<path d="M6.5 5C6.22386 5 6 5.22386 6 5.5C6 5.77614 6.22386 6 6.5 6C6.77614 6 7 5.77614 7 5.5C7 5.22386 6.77614 5 6.5 5Z" fill="#01B576"/>
<path d="M8 5.5C8 5.22386 8.22386 5 8.5 5C8.77614 5 9 5.22386 9 5.5C9 5.77614 8.77614 6 8.5 6C8.22386 6 8 5.77614 8 5.5Z" fill="#01B576"/>
<path d="M12.5 5C12.2239 5 12 5.22386 12 5.5C12 5.77614 12.2239 6 12.5 6C12.7761 6 13 5.77614 13 5.5C13 5.22386 12.7761 5 12.5 5Z" fill="#01B576"/>
<path d="M10 7C10 6.72386 10.2239 6.5 10.5 6.5H12.5C12.7761 6.5 13 6.72386 13 7C13 7.27614 12.7761 7.5 12.5 7.5H10.5C10.2239 7.5 10 7.27614 10 7Z" fill="#01B576"/>
<path d="M10.5 8.5C10.2239 8.5 10 8.72386 10 9C10 9.27614 10.2239 9.5 10.5 9.5H12.5C12.7761 9.5 13 9.27614 13 9C13 8.72386 12.7761 8.5 12.5 8.5H10.5Z" fill="#01B576"/>
<path d="M6 11C6 10.7239 6.22386 10.5 6.5 10.5C6.77614 10.5 7 10.7239 7 11C7 11.2761 6.77614 11.5 6.5 11.5C6.22386 11.5 6 11.2761 6 11Z" fill="#01B576"/>
<path d="M8.5 10.5C8.22386 10.5 8 10.7239 8 11C8 11.2761 8.22386 11.5 8.5 11.5C8.77614 11.5 9 11.2761 9 11C9 10.7239 8.77614 10.5 8.5 10.5Z" fill="#01B576"/>
<path d="M12 11C12 10.7239 12.2239 10.5 12.5 10.5C12.7761 10.5 13 10.7239 13 11C13 11.2761 12.7761 11.5 12.5 11.5C12.2239 11.5 12 11.2761 12 11Z" fill="#01B576"/>
<path fill-rule="evenodd" clip-rule="evenodd" d="M3.62046 13.4762C2.14279 13.2897 1 12.0283 1 10.5V5.5C1 3.84315 2.34315 2.5 4 2.5H12C13.6569 2.5 15 3.84315 15 5.5V10.5C15 12.1569 13.6569 13.5 12 13.5H8.36622C8.19331 13.7989 7.87014 14 7.5 14H4.5C4.12013 14 3.78972 13.7882 3.62046 13.4762ZM4 3.5H12C13.1046 3.5 14 4.39543 14 5.5V10.5C14 11.6046 13.1046 12.5 12 12.5H4C2.89543 12.5 2 11.6046 2 10.5V5.5C2 4.39543 2.89543 3.5 4 3.5Z" fill="#01B576"/>
</g>
</g>
</svg>
